<?xml version="1.0" standalone="no"?>
<!DOCTYPE svg PUBLIC "-//W3C//DTD SVG 20010904//EN"
 "http://www.w3.org/TR/2001/REC-SVG-20010904/DTD/svg10.dtd">
<svg version="1.0" xmlns="http://www.w3.org/2000/svg"
 width="512.000000pt" height="512.000000pt" viewBox="0 0 512.000000 512.000000"
 preserveAspectRatio="xMidYMid meet">
<metadata>
Created by potrace 1.14, written by Peter Selinger 2001-2017
</metadata>
<g transform="translate(0.000000,512.000000) scale(0.100000,-0.100000)"
fill="#000000" stroke="none">
<path d="M2379 5116 c-2 -2 -35 -6 -74 -10 -38 -3 -97 -10 -130 -16 -33 -6
-76 -13 -95 -16 -19 -3 -95 -21 -169 -40 -479 -124 -909 -385 -1244 -755 -122
-135 -246 -302 -314 -424 -173 -310 -268 -573 -318 -880 -2 -11 -6 -36 -9 -55
-22 -131 -29 -544 -11 -650 3 -19 13 -78 21 -130 132 -806 652 -1506 1393
-1875 218 -109 507 -201 720 -231 20 -3 79 -11 131 -18 89 -12 495 -14 560 -2
14 2 45 7 70 10 457 66 866 240 1225 521 128 100 290 255 371 355 16 19 31 37
34 40 29 25 189 257 242 350 146 256 266 595 304 860 2 19 6 44 9 55 19 95 27
458 13 605 -21 205 -71 430 -136 605 -52 141 -72 187 -132 305 -242 473 -616
852 -1091 1105 -67 36 -128 65 -134 65 -6 0 -15 4 -20 9 -38 34 -407 150 -560
176 -16 3 -39 7 -51 9 -12 2 -45 7 -74 11 -29 4 -62 9 -74 12 -23 5 -452 14
-457 9z m401 -220 c83 -9 117 -13 158 -20 17 -3 46 -8 62 -11 169 -29 403
-107 579 -192 740 -360 1234 -1071 1317 -1898 9 -87 9 -327 0 -425 -10 -115
-12 -126 -52 -330 -22 -111 -102 -335 -174 -485 -234 -491 -676 -912 -1183
-1129 -468 -200 -979 -245 -1467 -130 -399 95 -779 302 -1079 589 -72 69 -184
192 -228 250 -79 105 -101 137 -160 233 -186 308 -304 668 -330 1009 -12 154
-6 419 11 513 3 14 7 42 10 63 43 285 165 610 327 869 246 392 608 709 1028
897 184 83 432 158 585 177 23 3 52 7 66 10 14 2 57 7 95 10 39 3 71 7 72 8 5
5 304 -2 363 -8z"/>
<path d="M1975 3612 c-57 -30 -55 15 -55 -1054 0 -952 1 -984 19 -1014 12 -19
34 -37 54 -43 42 -14 75 -3 164 56 32 22 65 42 73 46 8 4 54 33 102 65 48 31
224 145 390 252 167 107 359 230 428 275 69 44 198 128 287 185 89 58 168 115
174 127 17 31 17 73 2 103 -8 16 -117 92 -300 210 -267 171 -418 268 -568 365
-33 22 -68 44 -77 50 -10 5 -125 80 -257 165 -378 245 -376 244 -436 212z
m410 -449 c135 -87 277 -179 317 -204 40 -26 129 -83 198 -127 204 -132 318
-205 372 -239 l51 -31 -144 -94 c-79 -51 -210 -136 -292 -188 -81 -52 -179
-115 -217 -140 -38 -25 -130 -83 -202 -130 -73 -46 -176 -112 -229 -147 -53
-35 -98 -63 -101 -63 -2 0 -4 342 -4 760 0 418 1 760 3 760 2 0 114 -71 248
-157z"/>
</g>
</svg>
